<mxfile host="app.diagrams.net" modified="2022-01-17T21:24:56.325Z" agent="5.0 (Windows NT 10.0; Win64; x64) AppleWebKit/537.36 (KHTML, like Gecko) Chrome/97.0.4692.71 Safari/537.36 Edg/97.0.1072.62" etag="QkbkSSqRvweLIwQVmqyS" version="16.2.7" type="github">
  <diagram id="prtHgNgQTEPvFCAcTncT" name="Page-1">
    <mxGraphModel dx="868" dy="482" grid="1" gridSize="10" guides="1" tooltips="1" connect="1" arrows="1" fold="1" page="1" pageScale="1" pageWidth="827" pageHeight="1169" math="0" shadow="0">
      <root>
        <mxCell id="0" />
        <mxCell id="1" parent="0" />
        <mxCell id="dNxyNK7c78bLwvsdeMH5-11" value="FlightList-component" style="swimlane;html=1;startSize=20;horizontal=1;containerType=tree;glass=0;" parent="1" vertex="1">
          <mxGeometry x="40" y="90" width="1093" height="290" as="geometry" />
        </mxCell>
        <UserObject label="SearchComponent&lt;br&gt;" name="Tessa Miller" position="CFO" location="Office 1" email="me@example.com" placeholders="1" link="https://www.draw.io" id="r9s2_iJcBQsN7OGcw8b5-11">
          <mxCell style="label;image=https://cdn3.iconfinder.com/data/icons/user-avatars-1/512/users-3-128.png;whiteSpace=wrap;html=1;rounded=0;glass=0;treeMoving=1;treeFolding=1;" vertex="1" parent="dNxyNK7c78bLwvsdeMH5-11">
            <mxGeometry x="10" y="40" width="780" height="40" as="geometry" />
          </mxCell>
        </UserObject>
        <UserObject label="FilterComponent" name="Evan Valet" position="HR Director" location="Office 4" email="me@example.com" placeholders="1" link="https://www.draw.io" id="r9s2_iJcBQsN7OGcw8b5-13">
          <mxCell style="label;image=https://cdn3.iconfinder.com/data/icons/user-avatars-1/512/users-9-2-128.png;whiteSpace=wrap;html=1;rounded=0;glass=0;treeFolding=1;treeMoving=1;" vertex="1" parent="dNxyNK7c78bLwvsdeMH5-11">
            <mxGeometry x="10" y="90" width="110" height="190" as="geometry" />
          </mxCell>
        </UserObject>
        <UserObject label="DateWiseTab" name="Tessa Miller" position="CFO" location="Office 1" email="me@example.com" placeholders="1" link="https://www.draw.io" id="r9s2_iJcBQsN7OGcw8b5-16">
          <mxCell style="label;image=https://cdn3.iconfinder.com/data/icons/user-avatars-1/512/users-3-128.png;whiteSpace=wrap;html=1;rounded=0;glass=0;treeMoving=1;treeFolding=1;" vertex="1" parent="dNxyNK7c78bLwvsdeMH5-11">
            <mxGeometry x="140" y="90" width="650" height="40" as="geometry" />
          </mxCell>
        </UserObject>
        <UserObject label="FlightDetailComponent" name="Tessa Miller" position="CFO" location="Office 1" email="me@example.com" placeholders="1" link="https://www.draw.io" id="r9s2_iJcBQsN7OGcw8b5-17">
          <mxCell style="label;image=https://cdn3.iconfinder.com/data/icons/user-avatars-1/512/users-3-128.png;whiteSpace=wrap;html=1;rounded=0;glass=0;treeMoving=1;treeFolding=1;" vertex="1" parent="dNxyNK7c78bLwvsdeMH5-11">
            <mxGeometry x="140" y="180" width="650" height="40" as="geometry" />
          </mxCell>
        </UserObject>
        <UserObject label="FlightDetailComponent ---Data to be ad" name="Tessa Miller" position="CFO" location="Office 1" email="me@example.com" placeholders="1" link="https://www.draw.io" id="r9s2_iJcBQsN7OGcw8b5-18">
          <mxCell style="label;image=https://cdn3.iconfinder.com/data/icons/user-avatars-1/512/users-3-128.png;whiteSpace=wrap;html=1;rounded=0;glass=0;treeMoving=1;treeFolding=1;" vertex="1" parent="dNxyNK7c78bLwvsdeMH5-11">
            <mxGeometry x="140" y="230" width="650" height="40" as="geometry" />
          </mxCell>
        </UserObject>
        <UserObject label="SortAirlineHeader" name="Tessa Miller" position="CFO" location="Office 1" email="me@example.com" placeholders="1" link="https://www.draw.io" id="r9s2_iJcBQsN7OGcw8b5-19">
          <mxCell style="label;image=https://cdn3.iconfinder.com/data/icons/user-avatars-1/512/users-3-128.png;whiteSpace=wrap;html=1;rounded=0;glass=0;treeMoving=1;treeFolding=1;" vertex="1" parent="dNxyNK7c78bLwvsdeMH5-11">
            <mxGeometry x="140" y="140" width="650" height="40" as="geometry" />
          </mxCell>
        </UserObject>
        <mxCell id="r9s2_iJcBQsN7OGcw8b5-20" value="" style="shape=image;verticalLabelPosition=bottom;labelBackgroundColor=default;verticalAlign=top;aspect=fixed;imageAspect=0;image=data:image/png,iVBORw0KGgoAAAANSUhEUgAAA7kAAAAwCAYAAADU8L1NAAAAAXNSR0IArs4c6QAAAARnQU1BAACxjwv8YQUAAAAJcEhZcwAADsMAAA7DAcdvqGQAAA6PSURBVHhe7d1bbxvHFcDxo4slX+REckRWlmMnqWsnpdAChR56QVsofQnzBfImfwj7RR/BL9aHMB/yEcq8FEILtE1RFWkKsa2L1rc4bkjLkiPZully58zOcod7oyihskT9f8BmyV2Ky5hHZ+bszK56nj59+koAAAAAAOgCvW4NAAAAAMCRR5ELAAAAAOgaTFcGAAAAALR4/M03srS0LCsr38q3K6uyubXl9hyMwYEBOXv2rLxhlpGRYRkrFt2e9ihyAQAAAADW6vPn8sVfv5RnKysyODgo/f39MmAKTl339vSYCtIsB+HVK9kxy8uXL2Vzc1POnDolpe9/IGdOn3YvyEaRCwAAAACQ+w8eyN//8U/pMwXt+Pi4nB8bk3Mjw3J2aMjuXzEF8PLysjSeLNpi+CC8MoVuuGybgvdt87kujJ93e9NR5AIAAADAMXf3/n2pmQL3zJkzUvrgfXn/yhW3J0lHV/X1Dx997bYcDC10d7a3ZfStc/LupUtuaxI3ngIAAACAY0xHZf/xzzu2wP35T3+SW+Aqnbp85fJl+cFEyW05GD09PXaU+cnTJVlbX3dbkyhygUNibW1NarWaXQMAAAAHZf6LL2zhqiO4hdFRt7W9wltvycULF9yzg9PX1yf3Hjx0z5LaT1deuC0zlZoUytflxlR0R6uF2zNSkWm5eW1C6nO3ZLbacHuMQlmu35gSfbXdNz/ZfB5q3b4gt2cqUvN+TukxqpeC4yaOISWZvnlNzNFl7tas+LtK0zfFfCwcN/U5uTVbFT9KWuI2Zb+NlUJ8e0HK129IFO5hjIUxF3Jx656pIPaSMRmI/3yrxcVF+eyzz+Sjjz6St0zCwOuVzDmtcZGW2/y8mIy3eFxFx4hyVn7smICL3l/Fj5GSQyu12HE1p1cvJXIyjqL0tjMRu/E2OW+fjemCVM37mqDz2tIgNucnTU4t1dJzaVZyQ5fIavPMg7x8Z/fNy6SXh4LcFDy2SprXNMW1vn+874ljqG1sZeei9DizARtra1Pad7MzEX+uJmq+T3j8WA6Ofldcvy/zc+6l/kn/rJHsY+b9Pi0uPpU//vnP8u4779hR3E7p1OW//PXLA7tGN6RTl6+8956cPRtcL+xrO5K7MG8K3EJBGmZdd9tS6Rd086bcvHldylKV2dsLbkcHGlWpzOUcpXkMXYJioT5XccVHuJ2G9njTX34XC9fLItVZmWmJRW9/S6xE24Mfu21SlFOvyXyjYH4PzDolrDVR2febLkmtckvm6kWZuhG+V8GL2+wCV+3s7MjGxoZd45Dwck4QFzPSWWrLiSuTUWvzphE1+bXWDKwOYsc1YOYA9vW6TBdM7r01F8vVDalW4tvQFRbmTefI5KaGWce/4Lw2OW+fNSGTJfHi0nB5cLIUdpCycim6XbLNczty810kKDz8ftt18/oogJrvbxYKXATyYis9F2XHmStwTfYL2/eb0wXznn4sB+K1T1gTJcRzcJib3dNATs7soP5J7Yt4+1v7C94xgx+M9YkjS8+W7V2Ux8+PuS2d0RHgrNHft3/4U/nVL3/RXH581e2QcfnRz6LtwTIp38/cnqRTl1+sp8+AbFPkLoj5Ps2/XVlK5guopv+7xBSlNJkSAG2ZL6JcMt9zJRFkbRUuxQIJMIpTcsM0wqanltrQZimWJlviqW5+vlGYlLKJ61o1p1iYmJT9XJWgv6h6e3Zd4/ApTt2QIJw6iaZIPK6aRUPZbK9VO857C9WqNErTLZ3AiWvTiVwd5u/cBhRHkna4tHNTLjWkmtlA57XJ2fsmgiq3mTvDPNiscYGcNi+R70L1OanagTC/I16UDv70JY65zNjy5cXZgmkjdXDMH3mduGba91geLZVM2+kXr1oTlUyR64+NKvM687PzXpWrubmkA4Tueb7O6p8990Xa9ImXn30rJ06ckJHhEbelcyPDb7pHES1wrw6typ3f/k5+Y5dvRMb8QveFPG7u02Ve/p67Pen5i70UuXomwnx5kxMpZ3UzLZggaZi6s20IJpVSgsxnOmqzMzMyo4sbrShOBR043d7ZCAuOBXsCpCGNZuIw8TXrYmgmedZO2eKheeLEjbaZX4AJTaxpIyZOfa5qfl8KUuigsdZbsNfrddne3pbe3l477ULX+ly3634cHjavNRrZJzpytMaVVzRMmBxrGk2/gWyvrh8jJc8WJPiI/nuV5Jpp2Brm+KTIbhKchC5NTiQK0lZ5bXLOPlvAhLNXojwYpbf2uRTdLa/Ni+e7psYDEznar3TPU9QqYVzRr0NSMrZSclFOnNWDxjMRm8n2fdLUPlHbbOPd9AMn7bNWkyY3Nkd9bYFtjp14YU7ObFf/xCQ+a0p9lMr+f/t94si3z57ZIjdt2u9uDZ054x6FxqUwtCmPf/83+cptEbkjn/97WQZGfyBvuy379eLFC/eoVW6Ra88Smy9UYyS/ETWa/8AVaezjGoqJclkKtUp6YvOH45tnYCbkmj43nbggMaZPjwEC/nSR6JoGP/nY6S1hfPlT9IrpxUjYIM9WC8F1EG77bqysrMj8/LxUKhVb4I6Ojtq1Ptftuh9HmRdXDZO/mnnLLxqC0bS2l4Tsx0RZyoWaVOgxdo/mSWjzuKUgdfLa5F21197J7cRUZZWVS9HtojZPr5bw27ysfNcZf7oy0+ARyIut/18u0tonaJuDNltPKqbSHOwGQewJbFc7tcr/nLn1Tzup9VFndkzfU6cc70tiJuKQDMimJHqyjzbM1tBpOe9NS45GeLO27152keuG+k02s0FlL7SON6I+9w+sI+H76qwVp2S6XDCHvS2N1DPPGSaumS93OtnQ43izZ/N2M7rqJ5+o0bZnDJvJNbhJQTy+bYN83SSnPcTexYsX5eOPP5axsTH59NNP5f79+3atz3W77sfh0XigZ4ALHTQgLq6CxBjNArDTpcwmvT7GdhZtYGXOEkgq6scIPk+LhgQfMf4JizI17RrQRsroCo6YuswFDbRUtH22NzhxBWkor03eZXsdntyeC2cd7KXnhK4TFaHxjnpGvvPljCQB2XYRW76cOCsGjafZ2yq1fQ+L1wU90Zc3A0FPCuogyEJ+MZyng/qn876Ik9MnPjsUjOCurq7a9V4kf3bVFLMDctY9a7owaLaGWqclf37Hbc7cnnTy5En3qFVmkWvPRJiS0b+hk8ZWuynL4TVh+7n+qzg1bUcddBpVOwsL3uepazkCOHpjHntn8HLKGbXdCK9Jj27sY4vZtATrJae9nGMpm894+fJluXv3rl3rcxwu9blbYu9U7G6QYq8LMrmuObsovAYorXELr/dxN4AKr6VsnnnVGwB1OGU5POt7q5lr9WYawV0avXu4RMIYtSducKTZkdXWES/b+UuZbZXXJrdtr+0IsYlLc7DWqcpAjli+a+FmRGXdlArIlRdbvrw4C2c2edN64+17JCheqxXTbqaOzkbsqG81uBnuXmpctZv6J/uzttGmT6z3hNE7JK/so8hN/uzX0lgdkPM/86cmX5UfXx6WzSf+FOb90WnWaTKKXDeVLvYPEZzVbXeDlAl3/ddsNOTenBqly26u3SnKVNkcK67lfVzgzruRZl3cnUaZ3nKcaVKL4qFgOoGtU/G8/WbJnRbipgOW/Z8PE2fKdRNhcvITZyc+/PBD+eSTT+wah4SXc4Lp6N7IhbuJQ/P6sTb5JywoZm//2p48KZX9KUVuynIn183q8cO7JdrP6O4WmTNVyd7DwD3G0RVczx07meGmLFcTDWxKm9yUt08FHbxGYqqy6iCX4tiJ8l08MPQO8npSL5yFkIwf/5rc6CQeEEjGVlouyoszt0/vLO+2B813+lRne0JZR5LbFZW2eNbz11kDK7vJme3rn0RfRHn7Wy/b9I6Z2ieOjI+fl62tLbn/cO+l58OvHrlHka++/IPcWR2Sq82px98R+W/+yGyn0m54pdr/nVwAAAAAQFfa3tmRP3z+Jzl1+rS8f+V7cvHCBbdndx4+eiT/+vd/3LODMzgwIB9cvSK9KX+ZJP/uygAAAACArtXX2yuXv/uenbJ89959WX72zO1pT1/7Ogpc9faF8dQCVzGSCwAAAADH3H/u3ZOnS8vS199vR3Pfe/cd6e/rc3tbvdzetgWxjuK+Due/U5SxnD+yTZELAAAAAJCvHz+W/9Yb0tPba//2bWF01F73OuTdgXlp+Zk0njyR1efP7baDpKPOFy+Mm8807Lako8gFAAAAAFjr6xty7+FDebG2Jj0Z04FfBy263710UU7s4m/6UuQCAAAAAFo8WVyUlefPZXNzS9Y3NmRnZ8ftORh9fX1ycnBQBgcH5M033pBhs+wWRS4AAAAAoGtwd2UAAAAAQNegyAUAAAAAdA2KXAAAAABA16DIBQAAAAB0DYpcAAAAAEDXoMgFAAAAAHQNilwAAAAAQNdo+3dyX73iz+gCAAAAAA6vnp4e9yijyI0XtmmFLsUvAAAAAOAg+cVsKL4tUeSGxWvWWlHgAgAAAABeh5ZRW/fYXzeLXL+YjT/2n/trAAAAAAAOUmph6xb73C9y48vOzk5iW/haAAAAAAAOWlpxq0tvb2/wWItcv4jVRYvbcAmf61rF1wAAAAAAHAQtYuPrsLjVtX28uLhoq1W/oNVle3s7sU0fhwsAAAAAAAfNjta6pVnYusd9fX1BkRsWrmFxGy4vX760y8bGhl0DAAAAAHBY9Pf3y+DgoF3r0lLkxgvcra0tWV9fl5GREbucOnXKvQ0AAAAAAK/f2tqaLC0t2eXkyZNy4sQJ6dUd4Uiuv+jIrRa34+PjFLgAAAAAgENHa1WtWc+dO2drWK1le/U/Kixuw+tvdYqyFrkAAAAAABxmw8PDtobVWjZ1JFd3aBXMCC4AAAAA4LDT2lVr2GaRG9IC118DAAAAAHBUaC3bUuSqcDQXAAAAAICjpFnkhoVtWNxS5AIAAAAAjhpb5MYLWgpcAAAAAMBRlZiuDAAAAADA0STyPwTBJOn2Tto9AAAAAElFTkSuQmCC;" vertex="1" parent="dNxyNK7c78bLwvsdeMH5-11">
          <mxGeometry x="270" y="147.66" width="490" height="24.67" as="geometry" />
        </mxCell>
        <mxCell id="r9s2_iJcBQsN7OGcw8b5-21" value="" style="shape=image;verticalLabelPosition=bottom;labelBackgroundColor=default;verticalAlign=top;aspect=fixed;imageAspect=0;image=data:image/png,iVBORw0KGgoAAAANSUhEUgAAA7UAAABRCAYAAAANZIE8AAAAAXNSR0IArs4c6QAAAARnQU1BAACxjwv8YQUAAAAJcEhZcwAADsMAAA7DAcdvqGQAACbqSURBVHhe7d0LfBTVvQfwX4CEQCKPJQkRSLBiqYBvwfqqFapcbqFebagCV8Ur1UKhvq5CRXuLtXqFYhUFwVZU5IpSjVoLlSIlatGq8QUiqAVbgkASyPJKQkh43PmdndnMLptNILvLDvl9P5/5ZPfMzG52Jydz/vM/50yK3+8/CBEREREREREPamX/FBEREREREfEcBbUiIiIiIiLiWQpqRUREREQkKfmXTMSgQQNdy0yssdd5zpqZYZ9lICYt8dsrY6hiMW55eLX9JJI1mBXpvf1LMGlWvL5dP5ZMCv3ssTyWCmpFRERERCRpDZhYiOXLiwLLTGDCpCVWiBQrDPAmIh6xZUQFs+o/i7WMXl+AQXELJKMYMACYtiDBFwgGYOKL9Z99+YsnYV6MvnsFtSIiIiIi4g25J2FA8TqU2k+bry/GL5+GIT77aYL1HT8LBYVPJy6oDhqE0RNLMCGmAbUfS2YdxgUH3xBMmmjF1s81/3dQUCsiIiIiIt5Qug7FBYOsUBRYM2silqxZgkkhXVlDu7kGutiyLCwjyK62JuPLTK2rGyzLg91jQ7vorpk1ECExILsTOwVhXYub3q24LwYWFGO9E6VHfJ0I2WT3ex+J4nXAkJ9jYsn40M/kFvK7ON9RoOty/T7Oc/4swLTCqRjO7ZuYTfedMwgDSkrsbcO7KNvvyd8j7PXCj4WCWhERERERSVrF0wrqA515J+HF8QxpzRpMmwdMMt1ZJ9iBbgHWj67v4sruvbPW+DBkdH5IRnDNc1ORP3oIQhO0VmA2fB1GO91jlxdiYBH3t1c3yArGrN9jZnC/Ikw9jNRvbq8BKCmxQ7a+E4KvsXz5LOSbLsJ9MXIiUPS+E9bx/QpRMND5Ho6U9b1MmoSSCRHGtjK453ft/C7sKmwCS2a2ZwFmHwah460PXoTxfQPlBQMmBfaZGv7dNsCXj/xg5t36faY6n70IL04swTxG8n1HYSKWo/7jL8G8wgK4P76CWhERERERSVohY2rDgqWCkMB0DYoKgcIJ9dm+CdZzEzD2HYSCwuV28MbtQoMiY81yFNpZ4AAfzhnoCjgbxO1KMIHveQTZ09L1xcjPtz9FSKZ4PKxf32BG04pqA9lK//sowiSMbG5MS74hGF1QGAgeXfzvL0dxsZ115TJ8qvXcCT6tAJZjmwcVoGhgoRXQmsIj4y9ByYCTkGs/ZQbWOXbDpxXbpfx+64N6/m6YOMp1nBTUioiIiIjIMaMgJGPKJZA1ZbazBEWMOa3gtSQsKGou35BpgfcbuNwEZE3vfswAewB6maguPFM8y/o0Ngaf+VPBZLMJ6gaeExLcNwfH9eZPewBLwgYqh1xMMEsgG+5WHOw3fWRM8Jyfbz4LZ7qe16v+PV+cOCCwkcU35Do7a+3H+0X8+KGfXkGtiIiIiIgcAzg+9dCso4PZzpJ5MzFrXskhQZERks0lBlCuLGqYNUwLh2P34ZkFTQz2At13CwuuC0xUxaxlYEUAM8f2Q+o7sACFRUus3ykfo2M6sxUzr/mYNmEqgrlRZoYbmh2Z2eQJge7WMxE2JvdwJvFaMxPDpwET7ZQzM9b1At99vcCxLVryPory7e/LRUGtiIiIiIgcE/qOD4yDdbqwDnJPsOQ7BwOtMLEQgxAppjXBnbnNjLNvYHyu072270iOP3XWDURRr0kI5BLDJjiaUBIM1A5ROL5+O/v1lztvYHcFNt2YuRSdBFey0voFRmFiyVRMy3d3kY4Rvrb7vazfZarpYuz8rtbC6JUB7fDlGPhiIGvLLC+s7yQQ2AYCT7NPxImiijFtuOv1zJjd+pmn+f0iOH76AVgvFlhhM9//tKnIjzCWOMXv9x+0H4uIiIiIiEiS4pjTooH1gXZEFYtxy/yeePiWU+yCYwVnWLYC6gjdoJWpFRERERERSXac9bckRhNEeZB/ydMNjoVWUCsiIiIiIpK0AveCHcRuv5OaeKucY4l9v9zhRYMwqYGxxOp+LCIiIiIiIp6lTK2IiIiIiIh4loJaERERERER8SwFtSIiIiIiIuJZCmpFRERERETEsxTUioiIiIiIiGcpqBURERERERHPUlArIiIiIiIinqWgVkRERERERDwrxe/3H6yqqkJ1dTXq6ursYhEREREREZHkkZqaivbt2yMjI8MuCUjZuHHjwf3796Nr165IT0+3i5MPA+7t27cjJyfHLjl80//hx4P/rLSfSbJ5a0AXfLNz6B+oJJd9+/Zh586d6NKli10iyaqiogKdOnVC69at7RJJRjz/8tyWlZVll0iy8vv96NChA9q0aWOXSDI6cOAAtm3b1qz2orRcTPLV1NTA5/PZJclr06ZN6N69u/2s5eDxKS8vR6tWrUIC21Y8eMke0Mqx7/hUoEe6esOLiIiIiEhkjFl50YoxrFsrZkAV0MrRdnZGiv1IREREREQkMsau4cNmU1avXn2wX79+9tPkFYvux3/bWoUVFXvsZ5JMzmhdg4t7dEG7du3sEklG6n7sHep+7A3qfuwd6n7sDep+LM2h7sfe8dlnn6Fbt272sxYW1PI1wqN6SQ5sLDBQUlCb3BTUeoeCWm9QUOsdCmq9QUGtNIeCWu8ID2o1iFFEREREREQ8S0GtiIiIiIiIeJaCWhEREREREfEsBbUiIiIiIiLiWQpqRURERERExLMU1IqIiIiIiIhnKahNoLWzB2PI7LX2s/jyF8/GT4cOxpwIb1dmrbtnzBUYMtj6fa4Yg3ueXwm/vU5ERERERKSsrMwskbCctxXibbTCRVsXLwpqjzl+fDB7LMYvBk7Os4tcalfOwI8fqcWl9y3EkqVLsWT+ZPRfNRm/WlRqbyEiIiIiIi1ZbW0tZs2ahblzn8C+ffvs0gDeY53l06dPR1VVlV0awG2ddbznb6IoqD3G1K5ditc734zfTxmKXnaZW2VZGerOH4zzc9MCBZm9cN7Fp+Pzd1YpWxsBK+ODVqXc8K9/2SWxM2f2bPzkxhuxc8cOuyRg8aJFuOjCC83yq3vuSeg/BC/j98jvK/z7bI5PPv44eCy48LmDx4XvF2mdRMe/cS6xEn4sItWbhuqbNCzRdSraOokukXWKfw+sS5HWSXSJrlNu/B/IRaQxDFi5bN26FY8++ijmz5+PHdbfLMsYsPJndXW1KX/88cdNRta9bufOnWbd008/je3bt5syLvGW8KCWaei6urqEpqOTVeX6NzBnyhgUsBvw4KEYOXk2PnAlTNldec5KP1Y9Pxkjh3KbK/DjKc9jVZToM63PCNw5og8yUYWNX9mFLplduyJ17XpstJ9bYTC+Xr8RPfqfDJ9dIvHlNAhOP+MMnHnmmXZpAIPnzz//HEuXLcNbK1bg7LPPxl+tx5J4bKTxnzGPA5c/WQ3GV199NdgY4XHh8Ym0ThLrX1a9GT16dPBYuetNtPomiRWtTjVW3ySxotWpHVaDddq0aSHrnn7qKbNOEqup9YaBLrNpGRkZdonEEwM4xjoHDx60S7zB7/fjq6++wqeffmqWNWvWwOfrbDK2H1t/Qyxzfq5cudKUk7O9s+7TT1eZddyXr+Gs52vzPeIloUGtE71v2rwZO3ftsktbrszUzuh//QwUshvw0pcx7fyNuHvu26i019PiyVOw9vTbMW8xt5mLsZ1fx11h2xyOtNPHYdrpi3DL2N9gcXExFv/mdjxZORb3/TDf3kLirWOnTnj8d7+L2MBevXo1Tj75ZKSnp5vnF154IT788EM17I4CHoOBgwbZz4C21nM2CHi1kg0JXnw45ZRTzDoeUzbs/vnPf5rnklisMz1POMF+BnTv3h0bNwYu3UWrb5JY0epUtHWSeNHqVM+ePU29cnCdHB1NqTdsPzDQPeussw7pJirxwRjn602bTMzjlSQeg01mXa+77joUFPzQLGPH/gRbtpSahY9ZNmLEVebn6NHXmnL6+c8nhawbM2bMIftx4WvzPeIV2CYsqGVAy6t7FRUVJnpv1Uo9n5F/OvrnZ9pP0pB32vk48Z3PXVlUy7BxuKqPz1pLPvS/4grkvRG2zWFJQ69LR+B8vIOX507HnDeA0wb3QVd7rUTHTOqPCgqC3Xycrjw8afAxuyo769Ql6+ji8XCOBY+Z04WcP7nO3bWuKV2y9lrHkg2CTlZjzv3YjV1w5PA0VKdo/jPP4MUXXgiucx/HaHgc8vIiTCogzRLPOhUu2jqJLtF16t1331V9O0KJqFPPPfccLrvsMnTu3NkukXhLSUkxsQ5jHl5gSPbAlhnlBQsW4N577zW9NDIyMs2S1jYdqampZuFjp9xZWE5t2qSGlDe0H1+b78H3ioeERJZOQLvdisz3WY99Ph+Oy3SCuRbMvxIv33c7fjr2KvzgijH46T1z8VVdIJXvOK1XWLiZmYbOYdscjtq1s633WYnv3v8ynpizEH+afw1qZ4/BXUs1UVRT8Mr1C4WFppsPuwjz5OGchNjt4nvf+16wG1BOTg4+X3t4s127r4YTM38KlI7M2HHjgsfirrvvxmuvvWavsY7VRx8Fu9aFH8eGsGHAbKyToeDx5VVxR/ixk6aJVqf4eNu2bQ0ex0i475tvvGF6OUhsxbtOuUVbJ9Elok65x3Gee+65GDpsmL1GDke865QzvvYM9VRJqA4dOphYp27fPvi3bzcxUDIHtkzAvPLKKyYIvemmm0zQyWXmrMeQldUF3bodj8dmzw6Wc3n22WdNOT3wwAMh67gt13FfvoZTPmHCBLM93yseXbPjHtTyIO7avdv0+WdAe9xxx5mrRS0+U+t/A3dd8wjKhk3GwwwuX56Lx24fbK+MFz/emf8yThs7Dv2dAbS+ARg7ZQyqpi/EB0ceK7cYzMg6E2QMvuQSvPv3v9trAkHNN77xDfsZjujKtXPicRoL7DKkrl1Hxj3h1k0/+5ldGtD7W99C19xc85jdtxigRuNMwOJuuJWXl5ur4g5lB49MtDpFbDA7eO6INiaMrzVr5kyMt06cCoZiL951yhFtnTQuEXWK5yonGGOmtilZRDlUPOsUjx3bECNHjjTPJXFaWzGOz6pbmZmZZvIkdrdlLJSsY2yZTd606WsTiPLvhUOruJzar68V8O41WdazrTrvlHPhEIUOHTqa/yEc3uNex225jvvyNZzygoICEzjzvTjmONbiGlny4DGY5exZPKjt27VDbteu5mC3dP4PluLD06/Clac7XYuB2sr4R5X8E0pLc97RltkZXVEJe7y3NIBXsp544glMnjw5eOX03PPOs9fGjvvKLa/SMlBWA/3w8Oo0s6bO9/jIo4/aaw4fGwp8LR4XR0Pj/XQB4vDEsk6xAXffr39tGt/usYASG/GuU45o66RxR6NOsRHMi3zcXpou3nWKPb2Wvf46fmAFuU7QvODZZ80FDx2r+GvdujW65uSgndVeYAxk6sjOnUkZ2DoTPhEDcQczzuOsv6nLL78c7awYzo3B6ahRo8z6Ll262KUB3NZZx9dwsFu2k92Nx2zIcYsuTUBrVZptFRUmW8tAKjs72xxkAXx5eUjduB5f2TM+1ZYW48mFq+I8ttWHE0/Lw+KFi7A+ONOUHx/MfRLvfPdinKYe4VExK1dWWt9Nm4+//OIL+1nssXHy4osv4qKLLrJLpKnCu2wzk3AkGmpg86o5r1JyYi9iA4Hd8zRm6fDEqk4poI2/eNcpUkDbfEejTjkT5LmHY0jj4l2n3Nl0J2ge9Z//aSbO04XyxGjTpg2ysrJMDMRYqIyB7a5dSRfYMuiOhG2du+++2yz8LG78DDfffLNZx164btzWWcfXcDAQjqe4BLWMvtmHnBlafmh+uC4+X8gHa/H6jMHDV2zEg1cFbtXz0zkbcemUmxD7vF+oXiNmYNr5K/HomKHW+1rvfcUdWJw2Fk/cdQEU00bHk8B3L74Y11x9tbnqOW/ePJx51ln22thgQ8LpNnaNdfIZPny4GulHgGO/OMbZ6dbFk0q0LnaR8Fiw6xavbDuvw4UNCPreJZeYmalZxivhbCzoWB2eWNWpFVaDjQ1C53W4KBsRW/GuU43VN2maRNQp9+RGXGZbz9mAVRvv8CTiPCVHFzOTzFqyKzJjIcZEpaWlST/G1sHfkZNdlZWVYfPmzdhl37mGn4MxHsu5sFeug9twW5Zz30R+zpTVq1cf7Nevn/20+Zzb9jgZWmZmOQsbD2hzsrTse80vrbExBdHwNeLRh7upeN/ZiWkz8KcxfewScXC8AbsvhHdvONp4wpgxY4Y5YevKZuBqHut3eFeTZMAJNJjZZmZBjSuYkwn/9yZj7xg2ijmuT5OXBM6ZPLexQZtsVKdC8TzFrnThGYtkoDpVj21PTobVnPZivKhOJb/q6mrTU44TPcUK/89XWP8/nJmQTbLPakfx/0lzhmQy2x+LYU/r16/HsGFDzeN3330PHTt2NI95brr11ltRUlJing8bNgy33XabiaUmTZqETz75xJSfccYZ+O1vf2se8+ci+6JKfn4+HnvsMbRv3948Z4+CwYMvNY8/+ujjZrf5P/vsM3Tr1s1+FuNMrXNyZpaWB42TQbFRxS55LbfbcS0qa2tRW/o2Xn8nFZf272WXSzJjMMur0szAaQbO5MZGAm+FwIwCZ59WQyF5ORkeji06uY8u7iUr1SnvUJ3yBtWplo0xEJN7DGKZvWWCgBee2dZMZCbzcO3duxcffvgBiouLzeK+F/+6deuC5XzscJdz30QmE2OWqeVBYTqdVzKdvtm8bU9ubm5MAlrPZmo5y/GI+/FhamecPeZ+/PKHvYITQ0m9ZM3USqhkztRKqGTO1Eq9ZM7USqhkztRKvWTO1Eryi0em1sE21OYtW8x7UKr1v8Rntac6Wv9XjuSuMPHO1LKL8R133IGSkg3m+bXXjsZ1111nYqlf/vKX1raBmdXPPfc83H///eYxb++zdOlfzOP8/J545JFHgpNFxTtTG5Oglv9AmJ3lP3znikPbtm2R16NHzP75ezaolSZRUOsNCmq9Q0GtNyio9Q4Ftd6goFaaI55BLbEdVWIFd86Mwwxmc7Kzzf+Www1s4x3UmvjOFduxG7EzOzLHzvJ7IvY8cAJXdzk/D9uLzE5T0nc/5mBhZmjdg4HZiOphfcn6xy8iIiIiIhKYGfj43NxgjMTYyZkVOdns2bMHCxcuxJw5c8zy3nvvmXLGfov+/FqwnI8dS5a+Hiznvu7bBcVbTIJavxXQ8qeDVzfiPW2ziIiIiIiIl7A3ayc7G0qMoZgcTDa7d+/GzJmPmi7FXAoLC005s83Pzn8mWM7HjuXLXg+Wc18na5sIMZkoivcncqfMmbpXN1/xsv27d2DX689je+Fj2P7SHOxc9LT5WbOm2N5CksXer1YHjhOXV36PHX98AjsWPYV927faW0gy2F+1C7uWvxBSp/zWzz2rj+zejBI/e/+55tA69ae52FdRf/9TOfoO7qnC7jdeCtapHX96CttffhzVK1fYW0iy2Lvh8/o69fLvsN2uU3XbNttbSEvC7GWVPa6W2MM1/F6vyYDdhp0ux1zcw2QYmDvl7m7E7nJn1uNEaXZQa/pLWx+SVxycVHpVVRVKy8pQZ0XyIp60fx9atT8OrTvnYNey57HloZvROtP6G++aZ28gyeJAdSXa5ORhX+VOlD9yO6pXrUD6yWejdXvdeTmZpBzYj1Zt26NNVjdTpzZPG4dW6e2QmtvT3kKSxYGaKlOnDlhBU5lVp6o+WG7Vqf5onREYMyXJ4YB1nkpJbWuO1e43X0bp9PFslCGt2zfsLSRZHKypDtSpvTUonzkRVX9/za5T9dk6aRmY9CvfutV07aU2VkDLu8RkJeFcJex5O2fO41i8eLFZRo8ebcrZG/fOO+8Mlk+dOtWU00033RQs576JDGxjkql1Doh79i4Gthyo74yzFfGUgwdRaTXkKt9ejJR2VnC0rw47//oC9qx6296gHhsSay9MCy7+F2baa6x68N7SYPn6Uadiv7/MXhN9P8fedSut/U4xPyWyg1awZDKzpSVonZWLPWuKsfO1+agLyyrxO/xy6PERjwczHhtvvyzisYi2nxv34WvwteRQ7F7FDNLut14J1Cnr+e6il1D9yVv2FvXiWae4Pffj60hkgTr1JOo2fYXUnO6o+fJj7PjzPNRt3WRvERBeb7g436vqVAKwTq15H7vfKERK20CmZPebr5iLEOHc9YaL+3tVnYo/p07VbvwSqbl5qFn/qalT+8o32lsExKNOhR/7SMdQEoMx0VYrNnJmP2aGtpMVPzExmIyTOvL3TUtLM0lLZyGez51J87iwO7LDvS23cQ9PjbeYBLXEqJ2BLT+AM8sV+2JzEqlEfiBvK0Hp2E7YMDh0KVnqPtnvRMXz12PDUK47DRumzEaF315lNP4auxYNO2T9hsmFULOhXkpmR3QZeSuyb7wHXUbcwv886HzZ9cj49r/ZWwQ4jYLer25EnxW1ZvH9aIIp4wmFJw9nXe7ND2Lrk78y66Lt5+A221/5HdJ762b60bT9Rj/k3voQsq+bjMxzh6D9qeeZY5aWE5pV31dRhqzr7gp+370WfIrWvq5m3XYrKM749mBTfvLr27Hns/eCFxKi7efgttyHjRWJjD0f+DeefeOvAnXKOi90/P61yDjv+/YWAfGsU1Tx/MNWnTrDfiaRpPfsY9Wph62/e6tOfecHSO/TH1kjb0Pq8SfYWwQc2FNp/uZZZ5zvnPWIVKfir1X7THS+/EZTp3xWnUpJTUOnf78aHS663N6i3t6SL5H/4KLgd543/VWktMtQnUqQtLzepk5lW3/3xw0abr4v1qk23U60twiIV51yyrkfg1xdgEg8BoicSZixETEJyGC2c6dOJgBMRpyZf8SIq3DBBReY5bHHHjPlDGJvu+22YDkfO7iNU37zzTcHM9KJELOglnhQsrOygtM6OweQtwBpyYFt7fpPUXbHMGy64Vx8/aOTsOma07B53EWofvMlewtHGQ58NRRtZ29A15dcy8XOP6Ya+OcWoHJjAXwv70DPpX9Dp/7FqLzjIfiDk4s19hrWH+PGFUi56f3Q9ZOHQjfTcdm7BzVrP0Dlu39BxfxpyL7+F8i8YJhpRDRVzT9WmpOTc2Jpf9oF2F+5K3gSagxPYG2ye9jPpCH7tm1G9cdvYtv8qaj9eh2yf/Jr63vrzn9I9hbRseHGxkHGmd8xz9nQ6/Tv15gLCk3B/bf933RknnOJOb4S2cHaGuz5/EOTRQrUqbvQYWABWmc0fRxRc+sUG3IHqnehdaa60UZTV7EFVR+9gYoFD2LvFx8j5yf3ok1OD6S0adoEkKpTiXGwdi/2fvmJ9f/vLVQ88wB8V/4MHS4diRTVqaTDiwemTi2cgWrrJy9EsE61Sk2zt4iuOXXKCYqJ++lC0dHBWGj7jh0mHmJAy9vm8HY3yX7bPWZqnYW9cB1MZjrl7smBuY1TvmVLYseMxzSoJR6crjk5pisyM7aM5nkQ3QOiW5rWWd2RMfBKdCwYj9QTTsYBK2A67ofjkJrX297CZp2gDuCbSO3VEemZ9Utb539e5QpUL+yNduOG4jhT1hEdhz2Ednn3oLp4p9mk0dewAuMDVgDc2npv9/r0zPTY/zF4GI+R/4VH4f/Do+j2i6fQ5eqJ9ppQvKpa9dFb+PKyPNOth91/mtIYaGw/PuYJrPMPrrdLpCH7KkqxZeo4c+Lucd8f0KZLrr0mFDMVZTNuC3bBYre6pmhsP158aNfv28pUNIJjybb/8ffYOvdXpk5lXf8/9ppQ8apTTkYqu4H3lXr7/eUonTYO6f3OQY8HXjokQ+vY5y/FrqKX8Pmlnc133lA34nCqU7FxsG6vGWpRan2Xx9/5e2TdEMiwRlK7YS1K/ntY8DtvShdU1anY4cSFrFNpPXsj7zevom3Pk+01oeJVpxx8rZp1n1rnyfpEh8QXg9jdlZUmFuJ9yRkbMaBlEtA9yW4y4gRQ48dPwC233GKWYZf9h70GGDVqVLCcjx3cxinnvgxuEyUu3yYPEm967Yyx3bt3r0lh11g/W6ID/i2oeuMFVC75PzOpA6wTReULj1j/5MrtLWyVZVZA2hGBztsR1O40AWubkGRhR2ScPxT7V30ZeNrYa2An9lv/H1MS9zfmSQyMcm+bYR28/dhhNRoawqvb7ObjdO3pOWMJtkz/mTlx8KTBK968wkq1m9aZsWkUbT8nS5F19e1oxbGHElVG/0HmqvfW3/2PFeBusUsPxW5zzvfNhdgg45VrZhnYfcux+29/tB81vB8FLz4M+y/zXBrWpnM2uv7sN2iVlp7wOkXsUsljye0kuvZnXoScCdOx7Zmp2LctdBytW9uTTkfvxVuC3zm7rm6+/wazTnUq/lp38CFn3H1o0zHLXDBClDlMcm+fFfy+3V1QVacSo/3pF5g6tf2FWagrK7FLDxWPOkXO2Oh/TbgEefe/YN5HEoMxEHutcsZjJ0PrhYCW+LveeOONmDJlilmGDL7UlDMze+WVVwbL+djBbZxy7uueGTne4vaNMmPLqZ/ZFZmPOSiagS2vUrQ0qT37oOsDf0TWXU8iJb090s8ehK6PLkc762eIWivoT12A3VfY41yvuAQbn18RNta13GRa3fZbwS42lsPkwht9jb04WJmDuimn2eNpI43LFWp74inocf8fzC0SKt9eZJdGl9b9JHA2V15t5UmD2QbniisbA2lh42cc7v2cLIVOOk3n+5H13eb3xpapY3Gg0u610IjjvvMfJntBzDSUzvjv4FXuaJz93BcfGBhL45idyH/4NVOneCuSpohFnXLGj7m74Ul0vituRPq3zsLme6/H/h3b7NLo0r8Z+J/FDJ/qVGKkdu+FEx7/G3b+5VnsXva8XRodv1vWBWb3VKcSh3Wq3Rnfwab/uTrqBVi35tYph3NR44SZy0xg6xw/iS+ntyrHlTIW4hharwS0XhTXb5UHsIvPZwZB8wDu2rXL3Fy4pY2vrV2/Cl+PPBnldwxD2gl9kT3lWbSyZyoMkTsKxy9chm5mvOwOdJv7EFJXXY9t9y2DGWbtuxBt+89G1dxiOLcy3rN2NnbM/RLo2hGmR3tjr4F85EwvRu78VWZ93iJ7XO41t2JrpdlAXNpaxytr9J34+hcjseezw7+fpvvqKa+OciwLGwYN2ltjTjZONyI2NHYtW4ivrhsQctVVQnGClO6/eNqMMSubPZn9few1TROekUjr2cc0CqJhRqOqeJk5NjxW/Mlj9Y/hJzWpu2xLxUaxqVN3j0DVR2/apU132HXKwowG77fqNAb5mF0xm9oFvUVq3QbdJj6GlLS2KJs1SXUqibXu2AU5N9yDzf97o5kH4nCpTiWIVafYW6WNLwdlj9yRkDoVjq/B7K87yyvxwViHMQ8nhuKcQ77OnZN2DK27i3A8J3ZittoRj8mx4hrUst84U9SdrKCWXZGJsyHvtILbliQ1/1vI+LerzeP2l440PxuSmmkHp3zsOxW5Y6cAby7AbpNJ7YrsyX9DWtmdKLOzsNtW9kfmmAHWX2Tb+v2ivoZ10NPqx9jyccdhU9A27ynUfFDfrUVs1t9wp++PRv5Df7ZO9JHHlblVr3rbZAojNQjYVYsnoEgZiOB+J55iZqV0TlrsJtbhkqtw4tPFpuEhDWMviO73Pmcdr2vMcYuGGSFeJIjUIHC6P3LClHDu/ZjhcHcT4zHisfrmi+uUZW8E61TPWcuR1qOXXdKwZtcpaz9310sunS+/wcwEy3JpGG8T0/2eZ8331VidIt72zD3pkEN1Kv46fO9K9Hz0dbQ9IfJYTTd2H9711z8EJx1yU52KLyY0uk2Zj84/soL/BNSpSBjQMiCW+HLHO4yB2JU3GQNacib43bChJGQyqFhjkM/3IPfkUrGSsnr16oP9+vWzn8YPZ0IuLy83B5hZ227HH4+MjKZ3L+LNitl9mWN1jxRfg8vRUvHgBOyv2IKsu582t7dommJsHvwwWj//LLr67KIQNdg2Ixc1/TegxwUN3cS7sdcA/LM7obLXF8gffHTGxnC8Aa9gJbLvfSzwxLLh5iHYv7PCPOctZXpYgRUbBDyxMMNb+e4Ss44nfKerVrT93Pgam6eONd3xkqFRx640nMGPx8prmEFgNsHhPh7MjjPLQOHHItp+bjym7DrZbdKciA3CROPJgxcUk/Uk2pB41yniMWWDLxm6TnJIDs9tHK7jNe56QwxsnKDmWKxTPE+x8Zest99oSHi9YWaX42N5TjkW6xTbm9u2bWtWe/FoiXWd4gUMdjeuLfnCXhP6mnIoDpesqamBz9dAg7kJKisrsWnzZjC5x/Mwe63G41y8adMmdO/e3X7WPEOHDkVRUREGDhwYMvFTLC1YsMC8x7XXXos5c+bYpUfus88+Q7du3exnCQxqyQS2W7eabsjskpydnW2vadyxENTyxFB+5w+Rmt8bvpsfRqsmnKQPlDyJjT/+BzIW/S+yIg2h8Bei5JoVaLfwIWQ3MKdQo6+BL1E69hzsG1OKHgPS7bLE8mpQ29J4Oahtabwa1LY0Xg5qWxqvBrUtjZeDWjn6YhHUlpWVmSRevCeFimVQ+/7772P06GuDmdR46dkzH/PmPYNzzjnHLjlyRzWoJf6z4RWM9PT0w5rm+VgIamlf+dfwz5qITv/1C6SdENr9o2btMlRmnIoO+V3Bb6a2dAW23X896s4vRN6IU01fcWduw1aoQXXJX7H9nltx4Kpl6D4436xv9DUqi7F1bUdknN4b7a0N9teWYMf8W1H5ziXoNHccGsr1xpuCWm9QUOsdCmq9QUGtdyio9QYFtdIcsQhqOXZ0j/Uax2VmxnVSqFgGtcTA9qWXXsKOHTvskthim+SGG25Ar16NDz1qiqMe1B6pYyWojaZu/QKUzX4S+1d9ECjIG4U219yCrIt7o22gBNVvXI+t93PW0HzgtKFoO+bnyOnTMTg4utHXqP0UZb95ADUfLIaZEjmjP1oNvhUdxwxFh6ZfY4g5BbXeoKDWOxTUeoOCWu9QUOsNCmqlOWIR1CZKrINar1FQm8RBbUumoNYbFNR6h4Jab1BQ6x0Kar1BQa00h4Ja7wgPauOXExcREREREfEITu7ERbxHQa2IiIiIiIh4loJaERERERER8SwFtSIiIiIiIuJZCmpFRERERETEsxTUioiIiIiIiGcpqBURERERERHPUlArIiIiIiIinqWgVpKC7gkmIiIiIiJHIuWLL744mJ+fj/T0dLtIREREREREJPnU1NSgpKQE2dnZdgnQqn379igvLzcrRURERERERJIRY1bGrhkZGXZJQIrf7z9YVVWF6upq1NXV2cUiIiIiIiIiySM1NRVMykYMau3HIiIiIiIiIh4C/D8ATH2eyxbFlAAAAABJRU5ErkJggg==;" vertex="1" parent="dNxyNK7c78bLwvsdeMH5-11">
          <mxGeometry x="280" y="92.1" width="444" height="37.9" as="geometry" />
        </mxCell>
        <mxCell id="r9s2_iJcBQsN7OGcw8b5-22" value="" style="shape=image;verticalLabelPosition=bottom;labelBackgroundColor=default;verticalAlign=top;aspect=fixed;imageAspect=0;image=data:image/png,iVBORw0KGgoAAAANSUhEUgAAA7gAAABtCAYAAACLIs1aAAAAAXNSR0IArs4c6QAAAARnQU1BAACxjwv8YQUAAAAJcEhZcwAADsMAAA7DAcdvqGQAADMaSURBVHhe7d0LXFRlAjbwZ2a4C4IKKuYtM5CMNhe3FkstMzSTLlbbam3mbmF9m+632bar1Zpb2m7ltqn7VXbxUmlXNbFUsvKSUinVhoqMV6RAZTCQizAwM9/7nnNm5sww4KCgAz7/3+91znnPmYtzOcwz7+UYCgsLHQJOVSTvS0m/TEREREREROQvg8GgLbmX9Zf+FKPR6F4vKCgQGdUdZO12u2tZXyc51530y0RERERERETNJYOpkzOoSh7BVSvedfp1ZfnQoUMOZ6jVX3oHXUm/LOnriYiIiIiIiPwlQ6n+UnKGVf2yLDK8OsNsk5cHDhxQAq6+yMAqLyXnundx0i8TERERERER+UsGUye57F1kaJX0Ida7OOuV6+zbt88VcG02m0egddY7172Lk36ZiIiIiIiI6FRkIHVSwqmPog+xznWTyeSq129XLs1msxJwT5w4gZ9//hlWq5WBlYiIiIiIiAKKDLEhISHo1KkTOnbs2CDkKgF3z549jvLycsiSlJSEuLg4hIaGajdBREREREREdO7V1taipKQEeXl5iI6OVooMtR4turJbcllZGQYOHIiePXsy3BIREREREVHAkVlVZlaZXWWGdQ6x1Q+rNcoV2S25W7du2tWIiIiIiIiIAlNsbKySYZ3hVh9yjc6kK5t1iYiIiIiIiAKZHIfrzLHeRQm4RERERERERG2JzLL61lsl4MoVIiIiIiIiorZEH2wZcImIiIiIiKjN8hlw5T9EREREREREbYk+2DrDLgMuERERERERtTnOcKvHgEtERERERERtjjPg6gsDLhEREREREbU53uFWahMB91jZSazfUYi3PjVjS24xjlfUovREraivwc+VtTh8tALjZ3+KR17O1q5BRERERERE7Zk+2EpyOaADrrXOhuMiyL60ehdueWIdJj33Bb7KO4rOUaHo0jEUXWPC0CkyFO98sR8rtxxC3+5R2jWJiFqLBZlTpiDToq0SERER0TnhzLL6TGvULgNOnc0uigOdRZCVIdZoMMAg6iPDgtUdND+WVOHFFT8gNNiIy/p10WpbT+7cwRg8WF+8vuhaMjGlqe0ecjHXY19RpmSKr8+yfq74V2XJnOK5j26b+mVbv20w5oqNDa+jFeX224sK5K+fi2kTRmGI8v+7BrdNm4ttRdpmjSVnGWZMvg3XKPsMwah7Z+DD3AptayMsOfhwzjTcdo32vA0ZhQnTFiPH+8kr2oa5U7T7F/vcOycTh2q1bRTgPD9/8nPj5v250n/mTo/ymfT1+fM4ZjA4UyP8Odac6fGoNgdz09X34hTvNyKPdUREFKC8Q64hOzvbUVJSgvT0dKUiUJRV1iJaBFsZahet24OpC7bCWluPN/42Anddd7G6k/Cv5d9h+mtf4aKeMVg7Zwz6XxCtbWlp8gvvaGSlrcP89Fitzov8ojo6C2nr5sO1i686F/kFW2zbMQ3JWo3Ks15+MZ6Fme77zZ2LwQsTsG5+OopF4F6Y0MRjUh73LGCmr/tvyyzYOON2PJJVqa3rhKRi9ur5GBVbi9zFkzB5gRlWbZNbH0xctAxTkkO1dT0L1k+5CY9lN7yW+7bFcsVGzBj1CLK8dgtJnYkPxGvTQ1unQKR+ns0ZOzBN+fDJz9xCJGifU0vmXGSnTnN9ZuRncLQ5AzuUnZv/mZI/jE06lIpUpImrpcN9Nc/7VY8XZmQ0OCbQec2fY00LHI/yF9+GuxYUKMupM3V/V3isa5OO/fdvKF3+b21NfOELDoUpKgb26krYa6oQPWoCejyxWNvaiIKl2HPXfWisr1/oK1b0G6itNKkMlg0LcfyNV2E7LN5jIYkwDp2CjlMzEN+gbaIGRc91RPlH2qq3K99Cj7m/QdPf9uRtXCxu42gzHiO1RXU/ZKFm3YuwF+2B4+QJrZYCmSG8I4w9BiBs9J8QfFmaVnt6MjMzERcXh6CgII8ScF2UbTY7MrMLRLBVW2yljh1CEGQywCgqosLdLbgHik9g+Rf7EBoahB6dIxAV4dm626Jyl2BW30VNBEm5i/zSO9PzS29suqzCrCVn2v6jE5+A1GwzisUX7UOHgL59G39M7VcsUseno0+fsZi+aDW27tiBHV/Mw/h4scmajSWbxBODUCSnjUdK5KWYOO8DfCH32foBpqfK6xdgSWYOfDdAxGLUzDl4ePoirN4qriOvt3q6CCeCuO012WrLRv6Hc9UvfJc+jA/kPutmIy1E7vIMFuewaSOgWbKRhZmY6EqRyZgoPqdZ2msbm+4Ot1Js376QHzaPNq3suVqrqyxNtLzmzlV+hNox08dBPDcLy8dnuO9LHC8yxi9Hlna4kMF6bq6+pVm9H4+eJJ5Nz9QO+XOsOePj0aEP8YwWbr3xWNc2RaaORt9Xtyml6x//CYMpCPXHj6LLhIdxceaP6D5tvrZnEyqPiHB7GUw3P4/Qu3yUztp+TTqEw9OSUfLkq3BcPAUdnv8U0Y/cD0PBUyi7+Woc2FWj7edUhvoj4uKS+33f59A+CFJ3bFTl5mkoX6utULtV9/0nqPrvXbDt/4bhtg2Rr5V8zeRrJ1/DM+UrywZcF+XNucW4e/YGrNh60PWAO4SJNG4ywiASrgy7kt3uwPrthTgoQq5B7JaSEIfoDr5a41pGbtZyjE9rqk1Fhs1UpKU2DJuxqWlI9f5yfCaKzcgenya+kouQl5aK5ZPOvPtkWxSaPA0ffvgkbkvuIaKsEJWABJFDJPMhrQtyj3TM37gYU4b0hTJCO7Svax8Ul0LuVZu7GBOGDMY19y5DvrpFvGjXYMJtyejhfEv1GC5eW21ZeQsWwZxdrKym3HYNlJsU1xk7Vi5YsWabWS5QoJKfIW3RSYbYbLP6mnqzqL8k6VpeszHLnKb++CHLor6YNauR7v/ifdrYD2PK7XqJT0gVxxL3LS2fJHtz6O5n9GBkpWnrOxZh/PKF7NbcrvlzrPHveOTzWKewYP3cudh56TiMcx7nXHisa6tMnbvjxGfv4+T/tsDUIRrBF1yo1J/M24Gq7Z+hYtMqZb0ptRVHxb99Efb7qej3YMNygfxR+RQqNzyFqq+B4Oe3o/+sqej96+HoMWYqEhZvQYcrC1A75SkUe/xOUgNHqbgYeI/P++x3y5XooO7oW8V6HHlyNYKnPhG44/CoRdSsm6ctUVvVWq9hQH325WzJL36YC6vNjjez8lFSrv6qFx4SpIyxNYqQ21Frpa2ts+HdL/ahurYevbtH4v4bkxAi9mkdakupnr4FRW1AKRZfApRNviktrr4sxyRnS4woDcY9abJnjXbtMzhLfLFW+1UiNn0+dqxLwEJl2/k+fq8UpdrrlJbiTLHeKlCkjdGNT0lQAkvFoRyYreKP8M5s6HKFp6JNyJKvb0gabhsir1UKc46yRQRmZwe9UPRITFCWrOYW/EGDWodHYNX4+iHKkinCa18s0j5zqlTMdDf/qr0qtMXmSk1o+A1RH7RTZ050d1dW7mc83L+1JSNtfDYayeXULvhzrPHveNTYsa5i478xSxzfxmVM8NE1nse6tqos83Ucf+cFlLw2C8defkzpomwICkZl9loU/WMirMUNf2DzVnNctup3g0ltWzgNR/Dz2jeB/rPR+dcxMGm1qr7o/chsGK3PiQBcptVJR2HbBxi6hGnrzVGGn56/D3WDFiDu4jLYtVpqn2xH+ANbW9dar2HABFzZWhscZMSYX/eGtaYO3++3iCJ/whMBNzQIYUEmpRW3gzbJ1Fd5x5QZlQ12B57LSEX/HtHKRFStI1Z+F/aQPE1tQVk0XqtAPBKa+oabmiD28GU8FjlbZ0RprKVHjoeS29fN9HEnsemYr1w/A+bR3pPlnC9qkTt3BhbIL/rx4zE+1feM2kWZMzBrk1xKRcbYRKUuNu0hEVYm4uHZ03CN/unPXYYJEyZgwqghGHzTXJhTx2PeB3Nwjbzp2gqf3ZsjQ1p/ojNqIb7CrHfodY2hb70xsb5ajX2FXpdGjyXULvlzrPHzeOTzWFebg4Vzs2BNnY6MIZFapQ6PdW1W1wfnIOlLKxI3lCHhkyPoMmEaHPV16PrA00p93O+f0PZsnNqPrg9Mp32SiqOo+05ciLDqGW418cMQ1h9in3zYtCpJ3q+hczd1pRnKN/wRJ7YMQ4dHbj7FGF1qF06eYsJQCnyt9BoGRMCV4bbyZJ3SOnv3yATcKUp5pRVL1ucrXZEjlIBrRFioSZlFWe775NLtsNvsuD99IMZc0Rs1Vv2hseXJboPLnQPjfJIhONs1hk/Pkp2FbF+tRachNj2jiS6JchyhZ/fG80VR5iOYvFz+0twH4+c8BF9zR9XmzsWUWdmwIgSpM6e7xz2GJiJ9yhQRZPuqXZ1dimE2m2EulYPPrCjN3YYPs3LYWtEe+Ghxld2FPYKla8Kn1pugTRnb66XYnC2OJa10h3R+83Gsy18+B8uL++Chh/STn1G74LDL8Vywn6yE5Y2n8NPfJyAs4XJ0uftRbYdTq9m7WhuWc7qiESQneBJ/RhuOktM5XADXlJGlBagXF4bm3m/pRzg6ZzNMj8z2q+s0EbVfARFwv9lzDHuLTsBkNCph9oX/MwS/TuqG1VsP4muxLSIsSGnFjYoIQUxUKNZ8VYCt3xdh8IBu+NNtyeIoCGUSqtakBstJjXYhlpLlLDWzZnmGT6V7Izy7M56RZEyT4/B8TlplQXbW+ffl2B1cRbh9ZTGm+Uq3RZl4ZPJyFCjh9gPMT/dj3s/kaa6W9a2rn8e4qAJsWjAZkxfniy+KUV5hWFVpVXsdUICLlfMZz4L7Y5QLOUecawz92ZrNODnN8wcrcb8Ll+u7INN5z59jzekej7SJpULGTcN4tUNLQzzWtVklC2cib1gY9o8fiLI1i5Rge+Eb32hb/aOG0jdRdm8y8q4OUctNI2F+bqmcxsIPfRF25WXAd0tR7mMOs7JPHkP1Pm3FSf6mLNjeuBt7Rmv3efXF2DPljziwYQ+q1M1ejqBwzkOwDVqAbmP6+m4tJqLzxjkPuAePVODPL23Drx74AP9ZkYuTtfXo1ikC/5h0BUKMBvzf/27FP97MUQJwsaUKH24+gFcyd0Pm2anjkpHQMwZGgxGhwa19OBPBcsc6pGXpxsKKMmm5tllSugqr3YRd+7RGC1DyRMw8NAlzc73P1amexshjqGA7J8PtBPEiFIhwO27eK5iW4qMflQi3U26fhWyrCLfTl+F5f8Ktl9Ae1yD9GnW5IMcMC7ogIUVdNx9ynni3FkX52liCvj3YGhLQYpE+fxEwyfnZmQQscn5Oxedqlni/eI2Pb50x7uK4si4NWc5jRit3h6a2yJ9jzekdj3Iz52KnXNi0AJPkcIwJU7FAG2+bs2AqJjy5kce6Niw8We2nYq+pxoVLv1W6JjdX5LDnETz0JoSMeQLR8z9FzJOvIXRoN9jW3tfIDMgNdb15NoIjs1A9+Xbs/2Q9ir/bJMpHODhzJIo/+wVCBmk7OnW+DOE3348Qcb/hj4j7nJ+JDlN/g6DaLNQ+eRkOT3sP+hG7UvmGaaj8bhgiZ7BrMhEBhm3btjksFss5OQ9uvc2OGa9/g/+3ehfq6m0wOBy46aoL8fd7BqNrTDjue36jMtHUvaMSMKh/HMqqrHh/436s2LgPw3/ZE2/NuA6lYnt+YRlGpvTUbpXOF7X5izF50gLstGottz7D7UY8OeURrCloouW2IhcfLt6I2oR03KZ03StC7jYr4lP6ItbZdGHZiDmTHsEKOVxy3DxsnTEEpR/ei5ueEV8P5akzFk9A34ptmDNqKlZYgbTnv8AcZbAuEdGZKfLjWOPPPt7HOrM8P7P+R1pvqTOV861beaxrs46/8x8cXfAoOlxxPXr/+2Ot9szZit/D/rvuhq3z8+jywVR01eobY6vYg59efhzVn62GQ/ZF7pyG4LufQLffhKFkxK9QOzQTvWeNanp2ZNTgyIsj8fP738D05DEkjIxRatXHMg2YsV3UdVfqFLueRd7kx3ke3HasbHKctkRtWcwrJdpS88nz4MbGxiI4ONjjPLjnNOC+vjYPj7ycDZPRgE5Roco42qPHq9G7ayRGiMAaHRGCaXf8At07R2jXAKpO1mHx+nxs3XUEN1/VF69m7sbv0hIxcVRj/auofcrF/CGTsETrytSQnLxrIoqmjMZjjc5unYqZ6+YjNXsKRsspRMX6bLE+Klaed3QSfH7vC0nAw4uWYYJ8u9WKL3nXql/yPPR5CG+LL4R8RxJRi/DnWOPHPvK8yp7HOmUPHdkraLQyo7Kc2NA16SGPdW1a8TP3o+zjJeh855/QbcpzWu2ZO75qJI4+D0S8vQF9+miVzVX6Ecw33wH7A9sx4O5faJVNqN2Efdddj7qbP0W/vwxHqHKO3aGowgL0mOvVesuA2+4x4LYPrRFwz1kX5U9zfsRfX/1amVRq/b/GYvN/blHKG4+OwPGKWnyaXYA7hl+khFub3YH9RSdwosqKDuHByBh7CXrEdsD9sz/Dtp1HMXjAqX47pPbI2mi4dfNjF0T1TUFCCBCZcg0Sle9zfZH2cBpSErq459aI7IOUtIfxymot3EqhQzBj9St4aHgfKHOPhnTBpWnTsWgxv/ARUQvy51jjxz4Nj3V+4rGuTYuf/irCBqTg+LsvolyesqeFmEJkC+pm2FyzQzVf7V5xfXRDyCA/wq0UGqZ+cT1yFLJzdNVmeYqhGBi7F6D0pXk4oC/vbZZ7ou49bX3zqU+LRETtwzlpwS04WokH/7MJv7mmP+71anndU1iGQfe/h6uS4/H+zDR0igzFCx/8gCeXbEdcTBiWP349BifEwfxjOabM/xKP/nYQrv1FPEymgJgvi4iIiCig2MpKsO/2BNhrqtD7xfXokHKttuX0HXtrMEpfTkTkR2+j12mdNeoQCjISUH3cv27OioqPYL7hDtju2o6kB3+B8k9uR9Gc1drGU7hjC5L+dKW2Qu0BW3Dbh3bRgmuz2fGfD3/AlUndlNZbeYqgA8Un8M7n+/DJ1wWYtyIX9jo7YqPDEB6iThy1cvMB1NTW43BxBT7cfBB2B9CjSwT6do9SZk9muCUiIiLyzRQTh97z1ivLRU/dq5wP95Rqy1DeyCkqTxYsRdkbPwDX3YNOpxVuy1D84t2o3t0NwVPv8Qi3laVHlNMENVSGopefgw1XIGyk2uIbPeYD5Zy+Pssr6qRasouyss5wS40ZsQrRImTJoOUqC/ah4+MLZYcVD6ZhCxH17D7dvoWInrUEoT66wfu3bwYiXxDbXlilm7F+BCJmFYr99yFqwgitTsf1eHeig/c5DyduU64Xqb9al1sQPmUbohc4H0cJol/IQeSEia4gGDxlp6gvROStWoXUZR6i5P4L1iJMq1Io91GCqIm9tIrAc9aT4Rvr8pG59SCuHXSBEk5/Kq3C9Jez8ddXv8KrH+ehc1Qolj4+En26RaG6Vj23bc+4DsqEVBDBV54r12CAKAZk/68IG3N+VPYhIiIiIt/CL7lCCXoXryqAIShYq21CZRaO3HAx9kyfhgPvvYei7zah6JOF2D9zLA7ddR9s3Z9Gpxmj1G7rmiMvylP6DMbBvVqFogxHVi3FT8rsyetx+L1pMN+UjLL3j8L0yKe4YJg6WZRT5Vu9sfemsdj34jwUbFBnXC54Sb1O+UcFMM14C70v1nYmakGOI5/Bun2lKJ+gvlyEpF63Ivy+qdpWIEgEu8i7boUpoga2/E/U/Y6IHbuPQfiD2xChC67N2ddTL4Q+LIJ1d8C2LQMVyz7X6n3phuCxSxCkrfmWgQ5/fRWhl4oPTfkO1Mn/384dcKA3goY/j6iHM5QwWLdrn6gLg7HnLerVpOsuVU+5FXwxgnSBOay7DLaHYc8uVCsC0FkNuHJiqOmvf61MKtW9U7hSt+/HE9i8+wjefeJ6rPzHaDz9+ytw57X9lRbcnyzq2c4e+10K7rimP+66MQn3i2IU4bawpApXXX4B7hzJoxwR0dl07NgxLFmyRFsjonapS5oIsFMQVPk/1L58N8qnXI/yOU/BWtANITO2oMeyR9Hd4yTJR2A9LC5CfoNwj69m4gv+d0/hhLh+2ZR0VL31P2DobMS8n4uLbhkA9dugW/RvMhExtBvqv56P6iflde5A9UdfwzHoCUS/La7D89xSayn/HNWvZYgyEZWPfQLZzGaI6K9uw1SE/epiGESws750KSr+PVHdb+alqNou3vgiBAaPdYbh5uzrKWjiuwhLjIYj/ylULWkq3JbDJgNz7BhE3OejlVcTdN9kBEeL8J7/GCoeuwFV8v83/wacePox1FeL/1/iZIQliB0/3wFbnQiGIoA7w2HYheKDXH0UdkTDONAZfG+BqUuYqC9EnXa2uEB01gKuPN/tU2/mKF2N7Q6HMnGUFBkejHARWHfkl+DbvSU4Ua1OCxQXE4HMbYdgF/sN7NsZyx8fiUWPXivqw1F5sg6zlu5AeGgQenRpelJ5IiJqWdu3b0dNTQ1eeeUVJewSUXsUg65jpqL//A1I+tzZ9bcQSYtfFyHzyobnm63Nh/Vr8YX596PgOTKyOy6YtVe7viirNyDhL/cgPj7MZ1ANjx+FPn95HQOW6a6z7kskzspAjz4x/ofbgY8q1+UMyuS36BEiLC5USodZY8R7rQa2A++o20aMgClYBMUDK1G9S61yqn9tJWSvf0P3EWo34+bsqzdiFToMEaHyyHJU/XuhCJZNEZ/A/GeVkGq8/GlEyJDaQC+EXNhbXB5G/Rqv2ytdiBqz/EWqN4KGyRbZJbCXiovY/trjykBQdxFkSz+HzSKD761qS3HCrTDJwHxkh18TuZ4rZ22SqYfmbcGbG8yotzkQHmzC8ieux8hfXoAKEVafW/Yd3v/yAC6+IAbPP5CKxF4x2JJ7BPf98zP87oYBeCB9oNKiK8frWk7U4Ll3v8f8lTsx6OJYvDX9OvSL76jdCxG1dTI0UeD7+GP1nJo33nijcjl58mTlkojOU3vnYc+kpQhdtAOy4YeotbXYJFNyTOudV8Ggrapq4Chci5OLM2CVoyHluFMRPu3f34wTL21Td3HphYjZ3yIkdi+sk4egujn7KmNwZyMouBwOEVoNwUdR9+qlqNqh7e6L9njt2+JQdWItokYPBgpfQcXTj8Ou3HdX1L/bH5WfO297B2oeukGZedyDdjvIfwzlIlAHPZiDyMuj1eueeAcd778Ojm2/RE3Htehw6QlYZ4jHe93niLkuGbbP4lDxnnY7Z0iO5z1d5/Q8uIvX7cHU/251tdrKVtkH0i/Bsxmpyjhca71dOf+tbJHt3DEUJqMRO8wluPWJtThy/CQuu6gLrk6OR5DRgE93FCLv0HGEhgXj+sE9sfDh4YiL9u7gQkRErUW22q5cuVJZ7tmzpyvkEtH5q+yT21G86iZ0X3gPOml1RK2ppQOuM+gBlyJkwnMIHz4YBstKVD6WgfrWDrgRgMNyFIjt5r5P7RoN6AJuxZJeCH98G0J7AfXrhqCy47unHXAxWA212Hk/quufEGEXqJubgqqe2v2JUGvtuQ/hieUi7KagWrb4toDWCLit2kVZtrhuyS3Gk2/muMKtJCeJkpNNLc7KR1mVFaHBJvTuFqW00tZYbcg9UIrpr36FY2U1CA4yIvfgcby+Zjc2flOI/j1jcM8NSUpLcK+4SHSMcJ2plIiIzgLZRVmSrbYMt0QkxcgZjRluqV3YCeuyp1BvEYuxIuzKqsJjkEnG0NHXeNeJMMo++9XHlHG7zdrXqXorah4TITRfjqu9FREPNj6u1lMhTq5cCzvCEDRsvle3Z1FfLS6Cu8LkowtzUGIvpdXacWKtWrFjJ+zaONyQ7r2BchHC5Thb5/jcC+chqLt48KK+roXCbWtp1YBbfLwas9/+FpZyz98M5AzItXX1mPbSNjw070ssXJOHFV8exMuZu/Hn/27FTX/9GJt+KEJyv8547O4U3D6sH/r1jMZjf7gCcx8coozbNZkM6H9BtBKOz558ZC5ciIW6smyLfPc33JaZr1U3yvu2lsF9U5m6elF83JhlyzKf9URErU2GWnZJJiKi9msEDDKIyq7K8uLzz5WQZ+gnwqfXuO6g+26FnJjcceRz1MqK5uzroRC1S5zjap9DB3/Hj+/KQPX3h4GIqxA6UD9ssxDWg9o427HqbMkuXTIQlqCNz93snA35adiOiIuIFASJm5GPUfw3XPWGjldp42+d9YGrVbsoT13wJRavN8Nm9xwmLVt2ZYuunE25rs4O8TojVITWG67sgyGXdMNXeUeR9fVhvPXESGXm5U93/Ijv91vQRey/6B+j8fdF25FX+DPemj4SN14pX5yzwLIFy1YUote4CRgaq9Xp5Gcuw7FU5zYZXs1IyEhHorLVD/L2s7tiQnqiEl6zu06AWPRNBuCcCkRGpSj7ExERERGdT1q8i/KRz1BXeEJUhMJ44QgExYbB4RzbKmrlqX/kJFCGuqOwHciBTexq7JUCU/duom4vrPOGoFqbWdj/fbVuxNiKk3++RQm9RvF4osTjMZR/hupHf9twMiePLspaHX6LDs/OV2ZMljMsq12U5XKGqJ+tzqRs2YH6g4VwhPdCUL/BMEYA9p2P4cR82S1bZRSPu6N43DLY16/rhUp1NFKj9S2hzXRRlmNsl2bl4/W1ezzCrQy28meQyJAgDOgVg9AQE24d1g83D+8nHowB86dcjX49OuLN6SPQ54KOqK6tx3WDeuLPt1+GAb074VhNPQqOVuAisQ0OAy7sHqXdcuvLz85D1HDf4VbqEiM+aPrm+sgYNOvc56VlqNQWmybCc04MxqUF7smV2w4Ltixzt5zLHxbcLfJERKT+YJsp/iUiat8M3a9DyK9uFWWMCLe1sOe/guqX1HAr1S8Zgsq3V8JWHQZT4hh1v+4yBK9E9T/d4VZqzr7e7J/fonZVjr4OYVN+q9WeyjuoWrdVbW32sBBV/7oftTv3itsbjGD5/7t0MAzYi7rP7kelLtxK9l2Htf/vXth0IdaevVerL4R9s7IQ0Fq8BVeGWNnq+rtnPsexspNaraquzobbhl+E+8YMgKW8Fs+8/S1+mRCHYZfFY/KcDVj7n1tQK/YZMrA7fnHfe4iLCcPIlF4YN/RCvPpxHt74JA+TbhigTEL1yTeHsev1OxEVIdt/W5sMQllAWuMBV91nBfKUlBqP4X613sovDptQLBfjhyNDa43Nz1yITUqlKn54hqs119VSDHeL73lLtmTrnygpMgnjJgxFoy+TB8/XVQbcLKRhQiMvsvK6wP06ERGdFdqxTv+3wE37O9KsY19znEaPJBf1sYk/iI33SCIiOk0t1oJL51SbaMGVofZfy79Hide4W0n+qiADrDwNUFVNHbp2CsPBwjL07hqJYBFazT+W42StTTlP7qhf9UJ8lw4i4PZEzl4LNv9QLB68Cau+PIgPtxzA4MS4sxRufZF/tL3Gx+ZnIw/iC0bGOCRFFmOTVi9DkTqW1tcv4IlIz8hAhiwJZtdtJaZrdUoZDnFj6nXFl5ycmLQmQvZ5SP4w4HquMjCuVyFW6McztyDldeG3NCI6ByLj41GRswXehzbLlhxUREZqa4FG/RvHwyYREZ1Npj/84Q9PVldXIzHxzP8CyXG1Ty7Nwfub92s1DR2vqMX/HfcLHCwux4bvinD855P47ciLsebbH5XAetJajxfez0VMVAg+2noQSz81IzP7ECqqrTCZjKizOUSx457rE5WW3rMjAjWHsvFTRAoSlXAZi8SUFKT0qUb+jx2QLJ66LVk/YuCE69Fb7NsnOQWR5izkdUnGLweJ/eS+KYlN/7IuNhZtMgM+9juWn4eq+BD8sG4njlvykJOTg5w8C6yVBcjJrxb310fc63mo1Iyc0i7iKXM/YxF9ktGnOhdb9oW46+X45rfWI1s+b6IURTpfx2oczhXv1YvEdcQTWH04F/thxaH167FJ2ze/ug+S5UblZpZh1eF41zrRGcnPRGZpovZeJGqCONZll8bgImshLPHq8UplQc7W/YjuFQXLiTAkyb8FyvHuB4To/5bIFuBs+edF1uQjc1keULYVK9Znq39PiiKR0iVPd5zMR7U8lir3UwpzTils1TlY79zf6++O/CF3xSb1mOl5jJW9ZFbhsMdjJiJqGTVrntOWqC0LS39UW2o+s9mMiIgIkRFNMBqN7qJtP2NyvOxrn+Th1Y93azUNyYAqz3f7wwELXv9oF3YfPA6LCK5vbTAjWGx7b+N+vLR6Fz77/kelO7Js8ZWzJcvz48rrOskpra8YcHa7JSSmJqHC2ZJ6ShYcq9AW/WU5hgqf43ZLUVYZha6xutZeWcYlIVK2XrZKl7S2LTapFyIrjmktHeLLnDI5mPO5ky3ijbfwVuaVIcH1PA9HVF5Wq7QGU2CxbMnEFlFcM5cv07eU6XpsiOLstKHUZ24RX+B9bfPk7skhirxtrctp8SZZ53w/+ns/rdNDgQJdV4hDGwrzdC++JQ/i6Iakrtq6vyrzkIM07Tg3DkkVm7BQjtbQjn3izwvysvVv5mJxP879tZ4yuje7R68jcWVfLc1ERERnS4uMwa212rDgo5144YMf8HNlw0mv9eQ43LQresFcWI4fSyqVUwYpk09p5KLRKCNs4+S5b3cvuhOdIj3P9tTqlJmU8zwng3KOnfXaFpk0rtGxnIoGt+Uct6sfyytFIsnXzM3y+hyDi4XmhIbdhpXntgwp8vmU+8hJuXQ/BMiwYU6Q3eZONQa3eWN0qe2Sr+2KshSPcfC+3iPqeyIbXSfIz6oMpDmIcX4+5ftO2dXrR6dG6uV9umdLb4H7ofbLdayDeC+YXeNhXe9T6I5z+uOfem2vY6V8P7lvQ5K3kxOj+5vl8R5ruL+y3fs+XPT7e7+vKVDkH7dh73E7dlvcxXKy4fQ054vYcAMuiTUqZaAo/TsZkdjlbJ6Gkk4Hx+C2D60xBrdFAu5z732PeStzoU6Y3PQBUm51iP1ErlWKs67pSOvp8oti8fGcMdoanbcaC7i6UCu+XWGF+9cCF/UHCLnZ/eWLAff85Rk29eviy/qyY0jVhUl3+PXe5l4vFfuo85+pP1yJb/xi3fPHKs/7bM79MDScd3THOo/3hTNI6o55pxtw1dvUKk4VcL3q5HvZ8zir/8GW79VA85fPa3C0yoHoUHeokyUuolVOrNEmlFS7g/4uUSqsdnTrYMSz14Zpe1AgYsBtHwJ2kqm//OZyFC7/HX56V5Z7mixFohS/Ly7f86zT73OqwnBLTck3i2QR1VUJA7FdoxpMRCULQyq1JneXTTUAqOtpQNZCr+7PRM2TmBCPYtkFON+MiqRUXehsnKXZY2a8VeCY/k0rh9Q4F2W4lb0fXMfX4SLeUiDa9mM9LnutElf2MGFpejjmp4XhwV+GYHjvoPM63Ery/y+fB/l8LBDPy5KxEfhVdxMuf70SXxfZtL2IqK04v49o1O7IL1ubiuMx3NkUkZiA+OIcjlmk09QFMSiEe9ijHF8fjwR/UkUDsRg6YRySUAbnKbMrXKnhFPdTqdvmHHfJ32jOT4mp4j2UhxWbKtDL15sgtiuiPAKpBXmFDXuxNE+lx9hfS14hKuMTfIZrOauz18nbKAAsyLHiv9/WYes9HXD7gHN1Boq25Y6kYGy6uwNe+KYWL31r1WqJqC1gwKW2rXiTa1IeWdSWBH1XOjk5VwrKVrj34SQ95D8ZSvXvnxUoS9G/v/wgu3u63nsrUNhLbXWTk6Ehb4X2fjzF/URGoUy2/sptctK0NHdXZjrfxCKpV6R4TzT2I4c45g2PEm8t53spC0hJwhmdSCgyCSnI0m5PHGcLe2Gc9iNi7NAUxOuOw1liz6RAPWvReUqG22PVdrx9UziiQpozIIxkN+53bolAUYWdITcQhUdpC9RmtdJr2CJjcImIqLV4j8ElIvKP7JYsW25luKUzc+eqaky7IhRX9ODkU4Gi4p+jYTuYo61RW2S6MAVRf1unrTVfq47BJSIiIqLA8sC6Grw8mhMltYRXRodj8rqT2hoFgrDRU7Ulaqta6zVkwCUiIiJqZ+RsyX+/OpTdkltITJgBf/t1KP62sUaroXMt+PIx6PDHt2G66AoYwjtqtRTo5GslXzP52snXsDWwizIRERFRO2IuteHprbVYelOEVtMC9lSh3xcOTLo2Ek8M0Oo0JZsqceVu4Nk7InF7K46lcN6Pnq/H05ruXn0Ss4aG4KJO7KpMdK6xizIRERHRecD8sx3RYS3/FW9YFLAo37sF04pNheq2s2HYJSE48GCkq5zNcCt1DBXP73GHtkZEgYgBl4iIiKgd2W2x45LY5n3Fk62jT+3RVhqxOcqEZyts+E5bV+ypw6Oifqy22t5dGmvCTgvPjUsUyBhwiYiIiNqR0wm4/jFgeC8HXtzkPmXOd/kOTEr07q5rxQdvVaLfS1p56yRKtC1qkK7BU9q2D7TT9n33kW7/j5o5ztVyEvc6r+t1fXm7H+xxbq9Sw7nX/s7H4I9L4ozYXWLX1ogoEDHgEhEREbUj/gdcdxCVY1sXfaGFviYCZtxAEWYLbVpgrcGaChMe8Oom/N1HVuQNdncj/rqXDVfqbnPRFzaM1bbJMbsy9L4Y4+56/HVMPe7VhWi9zbutrmDqCqyx4VisXffAgyF4tqLeI7Q+ugN4TtnWAYPEY37qfTv+5No/CHnva7fjh4Hied0lnl8iClwMuERERETnpRDcfrca9L6+RJ2wSQl9NzdxaqFY2R3Zhk0yQO6xYX8vE+LULRoReosMGKsLvTIUD6twuFpxh10SLIKmkzqGVx9cZdjeXOY7RHqOwZWBVXK3CPd7yYpHK5RKl0mDw92PUTzmRXDgNtf+9cr6/ma04hJRYGPAJSIiImpHZOutbMVtHSEY3gtYs8uqdE8eOzBEqz8zcgZmd3AVpamQ7UG2QtcjyXX9EDx7qgmvegR53pco/s7+LFtvZSsuEQUufkKJiIiI2pHTCbhxw/2fkVjpprzbitsqTBjeIBiGYWwPB9boJqwq2WXD5iiDV0uvkxqYH93azHG3Lnbk6VtsLTas8WrB9TDAhElFnl2Ym0OOv5XjcIkocPETSkRERNSOtPo40dhw/KkHMKxB92TVoJtDkLTD2QW4EleWBTXZIivD9Yeod+0vy6lmdHYLwwOXiID8vnbddRABW9vkUxieuMOENc79ZdFNgnUquSJAJ8fyHLhEgcywbds2h8ViQXp6ulZFRERERG1VfqkNc7KtWDI2XKuhlnL36mrMujoUF3VmyCU61zIzMxEbG4vg4GAEBQW5CltwiYiIiNqRxC4mdOtgwPt5dVoNtYTlu+vQu6OR4ZYowDHgEhEREbUzz14bhtnbalFe69Bq6EyUnnRg7te1mHONv5NfEdG5woBLRERE1A69ckM4Jq89qa3RmXhg3Um8PJpdvonaAgZcIiIionboyh4mDO8dhMc3ne4MxSTN2FiDtAuDMDieXZOJ2gIGXCIiIqJ26sFfhuCCKCPuXFWNshp2V24O2S35jpXVuDDGiPsvb5nz/RJR62PAJSIiImrHZMiddkUorl1WhXd3c+Ipf8gJpUa9U4W//jqU4ZaojeFpgoiIiIjOE3/bWIPCE3ZEhxpwaawJl8QZlfPmxkWcv20eJdV25bzBu0vsynluK2qB3h0NnFCKKMA1dpogBlwiIiKi88i+n23Ye9yBnSLMyVAnw53l5PnbfTk23KCEfBn2k0Xo79/ZgP6dON6WKNAx4BIREREREVG70FjA5RhcIiIiIiIiahcYcImIiIiIiKhdYMAlIiIiIiKidsE1BnfUqFFaFREREREREVHgWr9+PcfgEhERERERUfvFgEtERERERETtAgMuERERERERtQsMuERERERERNQuMOASERERERFRu8CAS0RERERERO0CAy4RERERERG1Cwy4RERERERE1C60fsA1WzHg43ptxX8lW624b6tNW2trbFj5rhUrS7VVIiIiIiIianUtFnC//1gE2dc9S8OAWo85on6OWVs9E6V1uK+p4CyDtdfjGfBuHUq0zf6QIdvvxyofj7gPhloiIiIiIqJzo0VbcO8ZGoI9f3CX164yaVucgjBD1M9I0FbPRKkDX2qLjepu9Hg8W3o6MLQZIfSnMm3BH12C8Zq4j1u7aOtERERERER0Vp3lMbjeXXfVFl3vllb3drvHdmeLsGxZHbBFLByxq9v87AIdd5UIuQOA6V/p9tdaXp33obbYqo/zt0eApVv09Q0f7/eyWqFuc68TERERERHR2WQ0GAza4tn3/cd2wNXqa8Q9ou6ZW9ytoF/ucWCMqwXWiH57RPAU4dcZVF0ttDcGqVfwQ9wAA66udGhdlUUoXeXAjeI+nfcBEWhXlppw650mPBPpbpVWW53VFmh1X/UxLGiz44SJiIiIiIjaLl9ZtkVbcJ2tnc7SdFdgGw5WAkmuLr0GJIlAmae7ztUDTLhcW3ZubxEi4P4kL812LI0Ugdf1GIIwprvnY2hKXJwI4WUObY2IiIiIiIjONmfQlZetOgbXn/Go7jDpQJ5H4G0lcuyuCLUXiMUS2Ywrwq4cl+sM5bJb8oGSxlpl1a7LrhAvu0kTERERERHROaEPt9I57KJswq0jDTjgavVVuyu39iRN3+8V/4iAGycuZAus90RUsjScHEuS4daGvEG6fYdqm4iIiIiIiOis8g630jkdg1uyxwEMMLkCY4vMrtwEOTmVbKF9xzlmN8GIe47YT9GVujEi8H6nLRIREREREdFZJbOsPs/K5XMacOOuUieOcnX5FaXhuXN9k9eV4VS5XmOzKDu3a2Vomdpa6x7XKyeNMiJvlXsfWdTAa8Ktg/SzKHuuD3hdPM5BBlyt3A4RERERERGdTc6A6yxK3fbt2x3FxcUYNWqUUnHWmEVI3AK84xE45al27MrMye46IiIiIiIiIrf169cjPj4eQUFBSjGZTMrlOWvBVSZ46m70DLKlDhzQJoAiIiIiIiIiaoy+5dbpnAVceS7bd+DZhXjAKgceujNYmQCKiIiIiIiIqDHOgCuL0Wh0XrbomYKa5fIbdTMSa4Vdk4mIiIiIiOhUnKHWK+ieu4BLREREREREdDp8Blz5DxEREREREVFbogRaEXL1QVcJuAy5RERERERE1FY4c6x3Ubooh4SEaLsRERERERERBTaZYZ2tt86iBFx5vqCYmBhtNyIiIiIiIqLAJjOszLL6cKsUs9nssNvtOHHiBH7++WdYrVY4HA7takRERERERETnngywsuW2U6dO6Nixo0frrSvo7tu3Twm4sthsNuVSBlxZnPXOde/ipF8mIiIiIiIiOhUZWJ1cLbBexRVcdev6llv9duXywIEDroCrD7TyUnKuexcn/TIRERERERGRv2QwdXKGWH2RoVXSh1jv4qxXrnPo0CEl4Mqgqr/0DraSflnS1xMRERERERH5SwZS/aWkhFRdvbP4CrM+LwsKCkQ+dQdZXy22sk5yrjvpl4mIiIiIiIiaS4ZTJ7nsXHcGV33xrtOvG41G/H8Xk5arSN51eQAAAABJRU5ErkJggg==;" vertex="1" parent="dNxyNK7c78bLwvsdeMH5-11">
          <mxGeometry x="330" y="172.33" width="472" height="54.04" as="geometry" />
        </mxCell>
        <UserObject label="HEADER" name="Tessa Miller" position="CFO" location="Office 1" email="me@example.com" placeholders="1" link="https://www.draw.io" id="dNxyNK7c78bLwvsdeMH5-12">
          <mxCell style="label;image=https://cdn3.iconfinder.com/data/icons/user-avatars-1/512/users-3-128.png;whiteSpace=wrap;html=1;rounded=0;glass=0;treeMoving=1;treeFolding=1;" parent="1" vertex="1">
            <mxGeometry x="47" y="40" width="853" height="40" as="geometry" />
          </mxCell>
        </UserObject>
        <mxCell id="dNxyNK7c78bLwvsdeMH5-15" value="" style="endArrow=blockThin;endFill=1;fontSize=11;edgeStyle=elbowEdgeStyle;elbow=vertical;rounded=0;strokeColor=none;" parent="1" source="dNxyNK7c78bLwvsdeMH5-12" target="r9s2_iJcBQsN7OGcw8b5-13" edge="1">
          <mxGeometry relative="1" as="geometry" />
        </mxCell>
      </root>
    </mxGraphModel>
  </diagram>
</mxfile>
